<?xml version="1.0" encoding="UTF-8"?>
<svg width="1785px" height="736px" viewBox="0 0 1785 736" version="1.1" xmlns="http://www.w3.org/2000/svg" xmlns:xlink="http://www.w3.org/1999/xlink">
    <title>Combined Shape</title>
    <g id="Landing-Page" stroke="none" stroke-width="1" fill="none" fill-rule="evenodd">
        <path d="M193.5,0 C286.55998,0 362,75.4400197 362,168.5 C362,172.400557 361.867465,176.270158 361.606654,180.104547 L361.487036,181.745688 C477.613671,190.234884 573.863191,270.317389 606.286402,378.04628 C620.179609,374.107376 634.843702,372 650,372 C695.906828,372 737.298077,391.333495 766.475684,422.302425 C795.819307,386.697887 840.258966,364 890,364 C926.300572,364 959.777656,376.088787 986.625068,396.460177 C1018.20335,348.019246 1072.86243,316 1135,316 C1156.01851,316 1176.18134,319.663585 1194.88476,326.387017 C1221.49013,295.445982 1255.60228,271.14042 1294.39495,256.296853 C1318.17942,144.148894 1417.76269,60 1537,60 C1673.96662,60 1785,171.033382 1785,308 C1785,413.748872 1718.81256,504.038839 1625.60405,539.703529 C1601.82117,651.850607 1502.23766,736 1383,736 C1311.36607,736 1246.8257,705.628817 1201.55317,657.060711 C1181.01109,665.403787 1158.54229,670 1135,670 C1088.86669,670 1046.85563,652.350525 1015.35074,623.435487 C986.047394,660.337447 940.787039,684 890,684 C844.092674,684 802.701026,664.666086 773.523368,633.696569 C744.181522,669.30169 699.741498,692 650,692 C608.011157,692 569.800009,675.82577 541.257041,649.367798 C490.832467,702.13413 419.754351,735 341,735 C201.56758,735 86.196881,631.979525 66.8528865,497.903559 C26.2390056,467.137022 0,418.382735 0,363.5 C0,319.103676 17.1699848,278.717616 45.2318185,248.619957 C32.3275046,224.794194 25,197.502812 25,168.5 C25,75.4400197 100.44002,0 193.5,0 Z" id="Combined-Shape" fill="#FFFFFF"></path>
    </g>
</svg>