<?xml version="1.0" encoding="UTF-8"?>
<svg width="145px" height="51px" viewBox="0 0 145 51" version="1.1" xmlns="http://www.w3.org/2000/svg" xmlns:xlink="http://www.w3.org/1999/xlink">
    <title>Logo</title>
    <g id="Landing-Page" stroke="none" stroke-width="1" fill="none" fill-rule="evenodd">
        <g id="3-・-Medium-Copy" transform="translate(-220, -44)">
            <g id="Group" transform="translate(220, 44)">
                <g id="Logo" transform="translate(0, 0)">
                    <g id="Group" transform="translate(0, 3.7399)" fill="#FFFFFF" fill-rule="nonzero">
                        <g id="な" transform="translate(9.725, 9.7601) rotate(-9) translate(-9.725, -9.7601)translate(1.225, 1.2601)">
                            <path d="M7.73018793,5.4249839 L5.94689225,5.4249839 C5.80278755,5.4249839 5.71272211,5.49109251 5.67669593,5.62330972 C4.98018987,8.35179223 4.18761401,10.9540674 3.29896835,13.4301352 C3.14285492,13.8508264 2.85464552,14.1633398 2.43434014,14.3676755 C2.03805221,14.5599914 1.61174247,14.5900408 1.15541091,14.4578236 L1.10137165,14.4397939 C0.669057544,14.2835372 0.35683069,14.0070831 0.164691088,13.6104314 C-0.0274485146,13.20176 -0.0514659649,12.7870788 0.0926387369,12.3663876 C0.921240772,10.0345568 1.62375119,7.79888388 2.20017,5.65936896 C2.21217873,5.61128998 2.20017,5.55720112 2.16414383,5.49710238 C2.12811765,5.4490234 2.08008275,5.4249839 2.02003912,5.4249839 L1.56971193,5.4249839 C1.13739782,5.4249839 0.771131708,5.27473707 0.470913579,4.9742434 C0.17069545,4.67374973 0.020586386,4.30714746 0.020586386,3.87443657 C0.020586386,3.45374544 0.17069545,3.09315304 0.470913579,2.79265937 C0.771131708,2.4921657 1.13739782,2.34191887 1.56971193,2.34191887 L2.81261498,2.34191887 C2.95671969,2.34191887 3.04678512,2.26379051 3.0828113,2.10753381 C3.11883747,1.9272376 3.14285492,1.81305001 3.15486365,1.76497102 C3.16687238,1.72891178 3.18188328,1.67181799 3.19989637,1.59368963 C3.21790946,1.51556128 3.23292036,1.45846748 3.24492909,1.42240824 C3.34099889,0.977677613 3.57516903,0.617085211 3.94743951,0.340631037 C4.33171871,0.064176862 4.7520241,-0.0440008586 5.20835565,0.0160978751 L5.24438183,0.0160978751 C5.68870466,0.064176862 6.03695769,0.268512556 6.28914091,0.629104958 C6.54132414,0.98969736 6.62538522,1.39235888 6.54132414,1.8370895 L6.48728488,2.12556343 C6.46326743,2.26980039 6.51730669,2.34191887 6.64940267,2.34191887 L7.73018793,2.34191887 C8.16250204,2.34191887 8.52876815,2.4921657 8.82898628,2.79265937 C9.12920441,3.09315304 9.27931348,3.45374544 9.27931348,3.87443657 C9.27931348,4.30714746 9.12920441,4.67374973 8.82898628,4.9742434 C8.52876815,5.27473707 8.16250204,5.4249839 7.73018793,5.4249839 Z M15.6379334,2.54024469 C16.0582388,2.60034342 16.4004875,2.79265937 16.6646794,3.11719253 C16.9288714,3.45374544 17.0369499,3.83837733 16.988915,4.27108822 C16.9408801,4.67975961 16.7427362,5.01030264 16.3944831,5.26271732 C16.0342214,5.52715175 15.6439378,5.63532947 15.2236324,5.58725048 C15.0194841,5.56321099 14.719266,5.54518137 14.322978,5.53316162 C14.1668646,5.53316162 14.0888079,5.59927023 14.0888079,5.73148744 L14.0888079,10.6175145 C14.0888079,10.7617514 14.1488515,10.875939 14.2689388,10.9600773 C14.8213401,11.3567289 15.4758157,11.9096373 16.2323653,12.6188023 C16.5566009,12.919296 16.7247231,13.2858983 16.7367318,13.7186091 C16.7487405,14.1393003 16.6046358,14.5239322 16.3044177,14.8725048 C16.0162083,15.1850182 15.6559465,15.3532947 15.2236324,15.3773342 C14.803327,15.3893539 14.4310566,15.2631466 14.106821,14.9987122 C14.0828035,14.9506332 14.040773,14.9085641 13.9807294,14.8725048 C13.9687206,14.8604851 13.9477054,14.8454604 13.9176836,14.8274308 C13.8876618,14.8094012 13.8666465,14.7943765 13.8546378,14.7823567 C13.8186116,14.7462975 13.7705767,14.7282679 13.7105331,14.7282679 C13.6624982,14.7282679 13.6324763,14.7523074 13.6204676,14.8003863 C12.9359703,16.2667954 11.4889189,17 9.27931348,17 C7.71817921,17 6.48728488,16.6333977 5.58663049,15.9001932 C4.70999356,15.1790084 4.27167509,14.1933891 4.27167509,12.9433355 C4.27167509,11.7173213 4.70398919,10.7317021 5.56861741,9.98647778 C6.42123689,9.25327323 7.65813558,8.88667096 9.27931348,8.88667096 C9.55551416,8.88667096 9.933789,8.93474995 10.414138,9.03090792 C10.5582427,9.04292767 10.6302951,8.98282893 10.6302951,8.85061172 L10.6302951,3.98261429 C10.6302951,3.52586392 10.7924128,3.13522215 11.1166484,2.81068899 C11.440884,2.48615583 11.8311676,2.33590899 12.2874991,2.35994849 C13.69252,2.39600773 14.8093314,2.45610646 15.6379334,2.54024469 Z M9.27931348,14.0972312 C9.78367993,14.0972312 10.131933,13.9830436 10.3240726,13.7546684 C10.5042034,13.5383129 10.6062776,13.0875724 10.6302951,12.4024469 C10.6302951,12.2341704 10.5642471,12.1199828 10.4321511,12.0598841 C10.0838981,11.8795879 9.69961886,11.7894398 9.27931348,11.7894398 C8.78695575,11.7894398 8.40267654,11.8976175 8.12647586,12.113973 C7.86228391,12.3303284 7.73018793,12.6067826 7.73018793,12.9433355 C7.73018793,13.3039279 7.86828827,13.5863919 8.14448895,13.7907276 C8.42068963,13.9950633 8.79896447,14.0972312 9.27931348,14.0972312 Z" id="Shape"></path>
                        </g>
                        <g id="か" transform="translate(31.225, 9.7601) rotate(5) translate(-31.225, -9.7601)translate(22.225, 1.2601)">
                            <path d="M15.9682325,3.93193717 C16.6860426,6.00224383 17.3430213,8.17427076 17.9391686,10.448018 C18.0608314,10.854899 18,11.2617801 17.7566746,11.6686612 C17.5255154,12.0516081 17.1848597,12.2909499 16.7347077,12.3866866 L16.570463,12.4225879 C16.1203109,12.5302917 15.7005745,12.4704562 15.3112538,12.2430815 C14.9340994,12.0276739 14.6786076,11.6866118 14.5447786,11.2198953 C13.9486313,9.00598355 13.2916526,6.86985789 12.5738425,4.81151832 C12.4278472,4.39267016 12.4582629,3.98578908 12.6650896,3.59087509 C12.8597499,3.19596111 13.1821561,2.94465221 13.6323082,2.83694839 L13.8148023,2.80104712 C14.2649544,2.69334331 14.7029402,2.74719521 15.1287597,2.96260284 C15.542413,3.17801047 15.8222372,3.50112191 15.9682325,3.93193717 Z M7.40925989,3.55497382 L9.01520784,3.55497382 C9.38019601,3.55497382 9.77559986,3.59685864 10.2014194,3.68062827 C10.7124028,3.776365 11.0104765,3.84218399 11.0956404,3.87808527 C11.253802,3.93792072 11.436296,4.10545999 11.6431227,4.38070307 C11.8742819,4.69184742 12.0081108,4.93717277 12.0446097,5.11667913 C12.0567759,5.17651458 12.0689422,5.25729245 12.0811085,5.35901272 C12.0932748,5.46073298 12.1084826,5.60433807 12.126732,5.78982797 C12.1449814,5.97531788 12.1662724,6.13986537 12.1906049,6.28347046 C12.2636026,6.8578908 12.3001014,7.36649215 12.3001014,7.8092745 L12.3001014,9.89154824 C12.3001014,12.4525056 11.9837783,14.2774869 11.3511321,15.3664921 C10.718486,16.4554974 9.79993241,17 8.59547144,17 C7.93849273,17 7.01993917,16.8803291 5.83981075,16.6409873 C5.41399121,16.5572177 5.08550186,16.3178758 4.85434268,15.9229619 C4.63534978,15.540015 4.58060155,15.1331339 4.69009801,14.7023186 C4.77526191,14.2715034 5.01250422,13.9483919 5.40182494,13.7329843 C5.79114566,13.5175767 6.20479892,13.4517577 6.64278472,13.5355273 C7.23893207,13.6671653 7.62825279,13.7329843 7.81074687,13.7329843 C8.33389659,13.7329843 8.59547144,12.2610322 8.59547144,9.3171279 C8.59547144,7.98878085 8.54072322,7.21091997 8.43122677,6.98354525 C8.32173031,6.74420344 7.98107469,6.62453254 7.40925989,6.62453254 L6.11355188,6.62453254 C5.95539033,6.62453254 5.87022643,6.69633508 5.85806016,6.83994016 C5.22541399,9.62827225 4.35552552,12.5841436 3.24839473,15.7075542 C3.11456573,16.1264024 2.84690774,16.4375467 2.44542075,16.6409873 C2.04393376,16.8324607 1.6302805,16.8563949 1.20446097,16.7127898 C0.778641433,16.5691847 0.474484623,16.3118923 0.291990537,15.9409125 C0.109496452,15.5699327 0.0851639067,15.1810022 0.218992903,14.7741212 C1.07063197,12.2490651 1.82494086,9.59835453 2.48191957,6.82198953 C2.50625211,6.69035153 2.44542075,6.62453254 2.29942548,6.62453254 L1.55119973,6.62453254 C1.1253802,6.62453254 0.760392024,6.4749439 0.456235215,6.17576664 C0.152078405,5.87658938 5.68434189e-14,5.51757666 5.68434189e-14,5.0987285 C5.68434189e-14,4.66791324 0.152078405,4.30291698 0.456235215,4.00373972 C0.760392024,3.70456245 1.1253802,3.55497382 1.55119973,3.55497382 L2.93815478,3.55497382 C3.1084826,3.55497382 3.19972964,3.47718773 3.21189591,3.32161556 C3.38222372,2.41211668 3.49172018,1.79581152 3.54038527,1.47270007 C3.62554917,1.04188482 3.85062521,0.682872102 4.21561338,0.39566193 C4.56843528,0.120418848 4.96992227,-0.0112191473 5.42007435,0.000747943156 C5.87022643,0.0246821242 6.2352146,0.204188482 6.51503886,0.539267016 C6.78269686,0.87434555 6.88002704,1.2513089 6.8070294,1.67015707 L6.53328827,3.33956619 C6.521122,3.36350037 6.53937141,3.41136874 6.5880365,3.48317128 C6.62453532,3.53103964 6.67320041,3.55497382 6.73403177,3.55497382 L7.40925989,3.55497382 Z" id="Shape"></path>
                        </g>
                        <g id="ま" transform="translate(50.225, 9.7601) rotate(-10) translate(-50.225, -9.7601)translate(42.225, 1.2601)">
                            <path d="M14.3925234,1.55376344 C14.8411215,1.55376344 15.2211838,1.70609319 15.5327103,2.01075269 C15.8442368,2.31541219 16,2.68709677 16,3.12580645 C16,3.55232975 15.8442368,3.91792115 15.5327103,4.22258065 C15.2211838,4.52724014 14.8411215,4.67956989 14.3925234,4.67956989 L11.4205607,4.67956989 C11.271028,4.67956989 11.1962617,4.75268817 11.1962617,4.89892473 L11.1962617,5.24623656 C11.1962617,5.39247312 11.271028,5.4655914 11.4205607,5.4655914 L13.6448598,5.4655914 C14.0685358,5.4655914 14.4361371,5.61792115 14.7476636,5.92258065 C15.046729,6.21505376 15.1962617,6.57455197 15.1962617,7.00107527 C15.1962617,7.41541219 15.046729,7.7688172 14.7476636,8.06129032 C14.4485981,8.35376344 14.0809969,8.5 13.6448598,8.5 L11.4205607,8.5 C11.271028,8.5 11.1962617,8.57311828 11.1962617,8.71935484 L11.1962617,10.6569892 C11.1962617,10.7910394 11.258567,10.9007168 11.3831776,10.9860215 C12.3551402,11.5709677 13.3520249,12.3082437 14.3738318,13.1978495 C14.7102804,13.4781362 14.8909657,13.8437276 14.9158879,14.2946237 C14.94081,14.7455197 14.8037383,15.1293907 14.5046729,15.4462366 C14.2056075,15.7874552 13.8317757,15.9641577 13.3831776,15.9763441 C12.9221184,16.0007168 12.529595,15.8544803 12.2056075,15.5376344 C12.0685358,15.427957 11.8691589,15.2664875 11.6074766,15.0532258 C11.3457944,14.8399642 11.165109,14.6967742 11.0654206,14.6236559 C10.953271,14.5383513 10.8722741,14.5566308 10.8224299,14.6784946 C10.4859813,15.4949821 9.91277259,16.0860215 9.10280374,16.4516129 C8.29283489,16.8172043 7.19003115,17 5.79439252,17 C4.29906542,17 3.12772586,16.6587814 2.28037383,15.9763441 C1.43302181,15.2939068 1.00934579,14.3311828 1.00934579,13.088172 C1.00934579,11.8939068 1.42056075,10.9616487 2.24299065,10.2913978 C3.0529595,9.62114695 4.23676012,9.28602151 5.79439252,9.28602151 C6.40498442,9.28602151 6.93457944,9.32867384 7.38317757,9.41397849 C7.53271028,9.42616487 7.60747664,9.37132616 7.60747664,9.24946237 L7.60747664,8.71935484 C7.60747664,8.57311828 7.53271028,8.5 7.38317757,8.5 L2.35514019,8.5 C1.93146417,8.5 1.57009346,8.35376344 1.27102804,8.06129032 C0.959501558,7.75663082 0.803738318,7.40322581 0.803738318,7.00107527 C0.803738318,6.58673835 0.959501558,6.22724014 1.27102804,5.92258065 C1.58255452,5.61792115 1.94392523,5.4655914 2.35514019,5.4655914 L7.38317757,5.4655914 C7.53271028,5.4655914 7.60747664,5.39247312 7.60747664,5.24623656 L7.60747664,4.89892473 C7.60747664,4.75268817 7.53271028,4.67956989 7.38317757,4.67956989 L1.60747664,4.67956989 C1.1588785,4.67956989 0.778816199,4.52724014 0.46728972,4.22258065 C0.15576324,3.91792115 0,3.55232975 0,3.12580645 C0,2.68709677 0.15576324,2.31541219 0.46728972,2.01075269 C0.778816199,1.70609319 1.1588785,1.55376344 1.60747664,1.55376344 L7.42056075,1.55376344 C7.54517134,1.55376344 7.60747664,1.49892473 7.60747664,1.38924731 C7.60747664,1.01146953 7.75077882,0.682437276 8.03738318,0.402150538 C8.31152648,0.134050179 8.64174455,0 9.02803738,0 L9.77570093,0 C10.1744548,0 10.5109034,0.134050179 10.7850467,0.402150538 C11.05919,0.670250896 11.1962617,0.999283154 11.1962617,1.38924731 C11.1962617,1.49892473 11.258567,1.55376344 11.3831776,1.55376344 L14.3925234,1.55376344 Z M5.79439252,13.8741935 C6.47975078,13.8741935 6.93457944,13.8071685 7.1588785,13.6731183 C7.38317757,13.5390681 7.52647975,13.2405018 7.58878505,12.7774194 C7.61370717,12.6311828 7.54517134,12.5336918 7.38317757,12.4849462 C6.97196262,12.3752688 6.57943925,12.3204301 6.20560748,12.3204301 C5.13395639,12.3204301 4.59813084,12.5763441 4.59813084,13.088172 C4.59813084,13.6121864 4.99688474,13.8741935 5.79439252,13.8741935 Z" id="Shape"></path>
                        </g>
                        <g id="NAKAMA" transform="translate(0.225, 25.2601)">
                            <path d="M8.66554054,2.27900552 C7.72297297,0.850828729 6.65878378,0.0303867403 4.46959459,0.0303867403 C1.73310811,0.0303867403 0,1.39779006 0,4.46685083 L0,17.9889503 C0,20.6022099 1.52027027,22 4.28716216,22 C7.08445946,22 8.4527027,20.6022099 8.4527027,17.9889503 L8.4527027,16.5 L5.53378378,11.820442 C5.44256757,11.698895 5.41216216,11.5773481 5.41216216,11.4558011 C5.41216216,11.1823204 5.625,11 5.83783784,11 C5.95945946,11 6.11148649,11.0607735 6.2027027,11.2127072 L12.1621622,19.7209945 C13.1655405,21.1491713 14.3817568,22 16.7533784,22 C19.1858108,22 20.9189189,20.6325967 20.9189189,17.5635359 L20.9189189,3.95027624 C20.9189189,1.33701657 19.4898649,0.0303867403 16.7533784,0.0303867403 C13.9256757,0.0303867403 12.4662162,1.33701657 12.4662162,3.95027624 L12.4662162,5.89502762 L15.5067568,11.0303867 C15.5675676,11.1519337 15.597973,11.2734807 15.597973,11.3646409 C15.597973,11.6381215 15.3851351,11.820442 15.1722973,11.820442 C15.0506757,11.820442 14.9290541,11.7596685 14.8378378,11.6381215 L8.66554054,2.27900552 Z" id="Path"></path>
                            <path d="M34.5709459,0 C31.0135135,0 29.5236486,2.00552486 28.277027,4.70994475 L22.9256757,16.2872928 C22.6216216,16.8950276 22.4695946,17.5939227 22.4695946,18.2928177 C22.4695946,20.1767956 23.5945946,22 26.2398649,22 C28.4898649,22 29.6148649,21.058011 30.4662162,19.2955801 C30.5878378,18.9917127 30.8006757,18.8701657 31.1047297,18.8701657 L37.5202703,18.8701657 C37.8243243,18.8701657 38.0371622,18.9917127 38.1587838,19.2955801 C38.8581081,21.058011 39.7398649,22 42.1114865,22 C45.0608108,22 46.0641892,19.9640884 46.0641892,18.0801105 C46.0641892,17.320442 45.9121622,16.5607735 45.6385135,15.9834254 L40.5912162,4.77071823 C39.1013514,1.45856354 37.5202703,0 34.5709459,0 Z M33.2331081,11.6381215 L34.0236486,9.45027624 C34.1148649,9.17679558 34.2668919,9.05524862 34.4189189,9.05524862 C34.5709459,9.05524862 34.7533784,9.20718232 34.8445946,9.48066298 L35.5439189,11.6685083 C35.6655405,12.0331492 35.4831081,12.2762431 35.0878378,12.2762431 L33.6891892,12.2762431 C33.3851351,12.2762431 33.2027027,12.1243094 33.2027027,11.8508287 C33.2027027,11.7900552 33.2027027,11.7292818 33.2331081,11.6381215 Z" id="Shape"></path>
                            <path d="M47.6148649,4.46685083 L47.6148649,17.5939227 C47.6148649,20.4502762 49.1047297,22 51.902027,22 C55.4594595,22 56.3108108,19.8729282 56.3108108,17.7154696 L56.3108108,17.0469613 L54.6993243,15.0110497 C54.5777027,14.859116 54.5168919,14.7071823 54.5168919,14.5552486 C54.5168919,14.3425414 54.6689189,14.160221 54.9121622,14.160221 C55.0945946,14.160221 55.277027,14.2513812 55.4898649,14.4944751 L60.4763514,19.9033149 C61.722973,21.2707182 63.152027,22 64.6114865,22 C67.0743243,22 68.4121622,20.480663 68.4121622,18.4751381 C68.4121622,17.2900552 67.652027,15.9226519 66.6486486,14.859116 L63.2128378,11.2430939 C63.0912162,11.121547 63.0304054,10.9696133 63.0304054,10.8480663 C63.0304054,10.7265193 63.0912162,10.6049724 63.1824324,10.4834254 L66.3445946,6.56353591 C67.2263514,5.46961326 67.652027,4.31491713 67.652027,3.28176796 C67.652027,1.45856354 66.3445946,0.0303867403 63.8209459,0.0303867403 C62.3006757,0.0303867403 60.9324324,0.850828729 59.7162162,2.49171271 L55.3986486,8.38674033 C55.2466216,8.59944751 55.0337838,8.69060773 54.8817568,8.69060773 C54.6385135,8.69060773 54.4560811,8.47790055 54.4560811,8.23480663 C54.4560811,8.08287293 54.4864865,7.96132597 54.6081081,7.80939227 L56.3108108,5.37845304 L56.3108108,4.61878453 C56.3108108,1.76243094 54.7601351,0.0607734807 51.9628378,0.0607734807 C48.4054054,0.0607734807 47.6148649,2.30939227 47.6148649,4.46685083 Z" id="Path"></path>
                            <path d="M81.3952703,0 C77.8378378,0 76.347973,2.00552486 75.1013514,4.70994475 L69.75,16.2872928 C69.4459459,16.8950276 69.2939189,17.5939227 69.2939189,18.2928177 C69.2939189,20.1767956 70.4189189,22 73.0641892,22 C75.3141892,22 76.4391892,21.058011 77.2905405,19.2955801 C77.4121622,18.9917127 77.625,18.8701657 77.9290541,18.8701657 L84.3445946,18.8701657 C84.6486486,18.8701657 84.8614865,18.9917127 84.9831081,19.2955801 C85.6824324,21.058011 86.5641892,22 88.9358108,22 C91.8851351,22 92.8885135,19.9640884 92.8885135,18.0801105 C92.8885135,17.320442 92.7364865,16.5607735 92.4628378,15.9834254 L87.4155405,4.77071823 C85.9256757,1.45856354 84.3445946,0 81.3952703,0 Z M80.0574324,11.6381215 L80.847973,9.45027624 C80.9391892,9.17679558 81.0912162,9.05524862 81.2432432,9.05524862 C81.3952703,9.05524862 81.5777027,9.20718232 81.6689189,9.48066298 L82.3682432,11.6685083 C82.4898649,12.0331492 82.3074324,12.2762431 81.9121622,12.2762431 L80.5135135,12.2762431 C80.2094595,12.2762431 80.027027,12.1243094 80.027027,11.8508287 C80.027027,11.7900552 80.027027,11.7292818 80.0574324,11.6381215 Z" id="Shape"></path>
                            <path d="M112.864865,11.8508287 L110.402027,15.7707182 L110.402027,18.019337 C110.402027,20.6325967 111.922297,22 114.597973,22 C117.456081,22 118.85473,20.6022099 118.85473,17.9889503 L118.85473,4.34530387 C118.85473,1.48895028 117.152027,0.0303867403 114.810811,0.0303867403 C112.682432,0.0303867403 111.314189,0.850828729 110.371622,2.43093923 L107.300676,7.6878453 C107.209459,7.83977901 107.057432,7.93093923 106.905405,7.93093923 C106.753378,7.93093923 106.631757,7.83977901 106.510135,7.6878453 L103.408784,2.37016575 C102.466216,0.759668508 101.219595,0.0303867403 98.7567568,0.0303867403 C96.3243243,0.0303867403 94.4391892,1.36740331 94.4391892,4.34530387 L94.4391892,17.9889503 C94.4391892,20.6022099 95.8986486,22 98.6959459,22 C101.462838,22 102.891892,20.6022099 102.891892,17.9889503 L102.891892,15.801105 L100.489865,11.820442 C100.429054,11.698895 100.398649,11.6077348 100.398649,11.4861878 C100.398649,11.2430939 100.611486,11.0607735 100.824324,11.0607735 C100.945946,11.0607735 101.097973,11.121547 101.189189,11.2734807 L104.016892,15.1933702 C104.625,16.0441989 105.658784,16.5 106.662162,16.5 C107.665541,16.5 108.668919,16.0745856 109.307432,15.1933702 L112.165541,11.3342541 C112.287162,11.1823204 112.439189,11.121547 112.560811,11.121547 C112.773649,11.121547 112.956081,11.2734807 112.956081,11.5165746 C112.956081,11.6077348 112.925676,11.7292818 112.864865,11.8508287 Z" id="Path"></path>
                            <path d="M132.506757,0 C128.949324,0 127.459459,2.00552486 126.212838,4.70994475 L120.861486,16.2872928 C120.557432,16.8950276 120.405405,17.5939227 120.405405,18.2928177 C120.405405,20.1767956 121.530405,22 124.175676,22 C126.425676,22 127.550676,21.058011 128.402027,19.2955801 C128.523649,18.9917127 128.736486,18.8701657 129.040541,18.8701657 L135.456081,18.8701657 C135.760135,18.8701657 135.972973,18.9917127 136.094595,19.2955801 C136.793919,21.058011 137.675676,22 140.047297,22 C142.996622,22 144,19.9640884 144,18.0801105 C144,17.320442 143.847973,16.5607735 143.574324,15.9834254 L138.527027,4.77071823 C137.037162,1.45856354 135.456081,0 132.506757,0 Z M131.168919,11.6381215 L131.959459,9.45027624 C132.050676,9.17679558 132.202703,9.05524862 132.35473,9.05524862 C132.506757,9.05524862 132.689189,9.20718232 132.780405,9.48066298 L133.47973,11.6685083 C133.601351,12.0331492 133.418919,12.2762431 133.023649,12.2762431 L131.625,12.2762431 C131.320946,12.2762431 131.138514,12.1243094 131.138514,11.8508287 C131.138514,11.7900552 131.138514,11.7292818 131.168919,11.6381215 Z" id="Shape"></path>
                        </g>
                    </g>
                    <text id="~" font-family="NexaRound-Ultra, Nexa Round" font-size="18" font-weight="800" fill="#FFFFFF">
                        <tspan x="63.2250438" y="19">~</tspan>
                    </text>
                    <polyline id="Path" stroke="#FFFFFF" stroke-width="6" points="84.2250438 19 109.225044 6 134.225044 19"></polyline>
                </g>
            </g>
        </g>
    </g>
</svg>